{"asset":{"version":"2.0","generator":"Blockbench 4.2.5 glTF exporter"},"scenes":[{"nodes":[25],"name":"blockbench_export"}],"scene":0,"nodes":[{"name":"bone2"},{"name":"bone2"},{"name":"bone2"},{"rotation":[-1,0,0,6.123233995736766e-17],"name":"cone","mesh":0},{"name":"bone2"},{"rotation":[0,0,0.06540312923014306,0.9978589232386035],"translation":[0.025729674807596442,-0.06901296509224952,-1.0507467911630949e-18],"name":"antennae","mesh":1},{"rotation":[0,0,0.25881904510252074,0.9659258262890683],"name":"antennae","mesh":2},{"rotation":[0,0,-0.06540312923014306,0.9978589232386035],"translation":[-0.025729674807596442,-0.06901296509224952,-1.0507467911630949e-18],"name":"antennae","mesh":3},{"rotation":[0,0,-0.25881904510252074,0.9659258262890683],"name":"antennae","mesh":4},{"translation":[0.30145934961519294,0,0],"name":"bone3","children":[7,8]},{"translation":[-0.15072967480759647,0.4216915365208209,-4.361590453884541e-19],"name":"bone2","children":[5,6,9]},{"name":"bone","children":[4,10]},{"translation":[0,0.625,0],"name":"Head","children":[0,1,2,3,11]},{"rotation":[-1,0,0,6.123233995736766e-17],"name":"cone","mesh":5},{"name":"Body","children":[13]},{"rotation":[0,0,-0.27982901403099203,0.9600498543859287],"translation":[-0.0635498296233411,-0.0706726416645389,-0.03125],"name":"cube","mesh":6},{"rotation":[0,0,-0.08715574274765817,0.9961946980917455],"name":"cube","mesh":7},{"rotation":[0,0,-0.27982901403099203,0.9600498543859287],"translation":[-0.0635498296233411,-0.0706726416645389,-0.03125],"name":"cube","mesh":8},{"rotation":[0,0,0.3420201433256687,0.9396926207859084],"name":"bone4","children":[15,16,17]},{"name":"bone6"},{"rotation":[0,0,0.27982901403099203,0.9600498543859287],"translation":[0.0635498296233411,-0.0706726416645389,-0.03125],"name":"cube","mesh":9},{"rotation":[0,0,0.08715574274765817,0.9961946980917455],"name":"cube","mesh":10},{"rotation":[0,0,0.27982901403099203,0.9600498543859287],"translation":[0.0635498296233411,-0.0706726416645389,-0.03125],"name":"cube","mesh":11},{"rotation":[0,0,-0.3420201433256687,0.9396926207859084],"translation":[0.4979003407533178,0,0],"name":"bone5","children":[19,20,21,22]},{"translation":[-0.2489501703766589,0.5081726416645389,0.03125],"name":"bone6","children":[18,23]},{"children":[12,14,24]}],"bufferViews":[{"buffer":0,"byteOffset":0,"byteLength":1008,"target":34962,"byteStride":12},{"buffer":0,"byteOffset":1008,"byteLength":1008,"target":34962,"byteStride":12},{"buffer":0,"byteOffset":2016,"byteLength":672,"target":34962,"byteStride":8},{"buffer":0,"byteOffset":2688,"byteLength":216,"target":34963},{"buffer":0,"byteOffset":2904,"byteLength":720,"target":34962,"byteStride":12},{"buffer":0,"byteOffset":3624,"byteLength":720,"target":34962,"byteStride":12},{"buffer":0,"byteOffset":4344,"byteLength":480,"target":34962,"byteStride":8},{"buffer":0,"byteOffset":4824,"byteLength":144,"target":34963},{"buffer":0,"byteOffset":4968,"byteLength":720,"target":34962,"byteStride":12},{"buffer":0,"byteOffset":5688,"byteLength":720,"target":34962,"byteStride":12},{"buffer":0,"byteOffset":6408,"byteLength":480,"target":34962,"byteStride":8},{"buffer":0,"byteOffset":6888,"byteLength":144,"target":34963},{"buffer":0,"byteOffset":7032,"byteLength":720,"target":34962,"byteStride":12},{"buffer":0,"byteOffset":7752,"byteLength":720,"target":34962,"byteStride":12},{"buffer":0,"byteOffset":8472,"byteLength":480,"target":34962,"byteStride":8},{"buffer":0,"byteOffset":8952,"byteLength":144,"target":34963},{"buffer":0,"byteOffset":9096,"byteLength":720,"target":34962,"byteStride":12},{"buffer":0,"byteOffset":9816,"byteLength":720,"target":34962,"byteStride":12},{"buffer":0,"byteOffset":10536,"byteLength":480,"target":34962,"byteStride":8},{"buffer":0,"byteOffset":11016,"byteLength":144,"target":34963},{"buffer":0,"byteOffset":11160,"byteLength":1440,"target":34962,"byteStride":12},{"buffer":0,"byteOffset":12600,"byteLength":1440,"target":34962,"byteStride":12},{"buffer":0,"byteOffset":14040,"byteLength":960,"target":34962,"byteStride":8},{"buffer":0,"byteOffset":15000,"byteLength":288,"target":34963},{"buffer":0,"byteOffset":15288,"byteLength":288,"target":34962,"byteStride":12},{"buffer":0,"byteOffset":15576,"byteLength":288,"target":34962,"byteStride":12},{"buffer":0,"byteOffset":15864,"byteLength":192,"target":34962,"byteStride":8},{"buffer":0,"byteOffset":16056,"byteLength":72,"target":34963},{"buffer":0,"byteOffset":16128,"byteLength":288,"target":34962,"byteStride":12},{"buffer":0,"byteOffset":16416,"byteLength":288,"target":34962,"byteStride":12},{"buffer":0,"byteOffset":16704,"byteLength":192,"target":34962,"byteStride":8},{"buffer":0,"byteOffset":16896,"byteLength":72,"target":34963},{"buffer":0,"byteOffset":16968,"byteLength":288,"target":34962,"byteStride":12},{"buffer":0,"byteOffset":17256,"byteLength":288,"target":34962,"byteStride":12},{"buffer":0,"byteOffset":17544,"byteLength":192,"target":34962,"byteStride":8},{"buffer":0,"byteOffset":17736,"byteLength":72,"target":34963},{"buffer":0,"byteOffset":17808,"byteLength":288,"target":34962,"byteStride":12},{"buffer":0,"byteOffset":18096,"byteLength":288,"target":34962,"byteStride":12},{"buffer":0,"byteOffset":18384,"byteLength":192,"target":34962,"byteStride":8},{"buffer":0,"byteOffset":18576,"byteLength":72,"target":34963},{"buffer":0,"byteOffset":18648,"byteLength":288,"target":34962,"byteStride":12},{"buffer":0,"byteOffset":18936,"byteLength":288,"target":34962,"byteStride":12},{"buffer":0,"byteOffset":19224,"byteLength":192,"target":34962,"byteStride":8},{"buffer":0,"byteOffset":19416,"byteLength":72,"target":34963},{"buffer":0,"byteOffset":19488,"byteLength":288,"target":34962,"byteStride":12},{"buffer":0,"byteOffset":19776,"byteLength":288,"target":34962,"byteStride":12},{"buffer":0,"byteOffset":20064,"byteLength":192,"target":34962,"byteStride":8},{"buffer":0,"byteOffset":20256,"byteLength":72,"target":34963},{"buffer":0,"byteOffset":20328,"byteLength":12},{"buffer":0,"byteOffset":20340,"byteLength":48},{"buffer":0,"byteOffset":20388,"byteLength":156},{"buffer":0,"byteOffset":20544,"byteLength":468},{"buffer":0,"byteOffset":21012,"byteLength":12},{"buffer":0,"byteOffset":21024,"byteLength":48},{"buffer":0,"byteOffset":21072,"byteLength":156},{"buffer":0,"byteOffset":21228,"byteLength":468},{"buffer":0,"byteOffset":21696,"byteLength":156},{"buffer":0,"byteOffset":21852,"byteLength":468}],"buffers":[{"byteLength":22320,"uri":"data:application/octet-stream;base64,"}],"accessors":[{"bufferView":0,"componentType":5126,"count":84,"max":[0.25500795245170593,0,0.359375],"min":[-0.25500795245170593,-0.3125,-0.359375],"type":"VEC3"},{"bufferView":1,"componentType":5126,"count":84,"max":[0.936329185962677,0.894365131855011,0.7815516591072083],"min":[-0.936329185962677,-1,-0.7815516591072083],"type":"VEC3"},{"bufferView":2,"componentType":5126,"count":84,"max":[0.90625,0.8125],"min":[0.03125,0.43671876192092896],"type":"VEC2"},{"bufferView":3,"componentType":5123,"count":108,"max":[83],"min":[0],"type":"SCALAR"},{"bufferView":4,"componentType":5126,"count":60,"max":[0.027063293382525444,0.0691964253783226,0.03125],"min":[-0.027063293382525444,-0.0558035708963871,-0.03125],"type":"VEC3"},{"bufferView":5,"componentType":5126,"count":60,"max":[1,0.6546536684036255,0.8660253882408142],"min":[-1,-1,-0.8660253882408142],"type":"VEC3"},{"bufferView":6,"componentType":5126,"count":60,"max":[0.015625,1],"min":[0,0.96875],"type":"VEC2"},{"bufferView":7,"componentType":5123,"count":72,"max":[59],"min":[0],"type":"SCALAR"},{"bufferView":8,"componentType":5126,"count":60,"max":[0.025439497083425522,0.07133928686380386,0.029374999925494194],"min":[-0.025439497083425522,-0.04616071283817291,-0.029374999925494194],"type":"VEC3"},{"bufferView":9,"componentType":5126,"count":60,"max":[1,0.6546536684036255,0.8660253882408142],"min":[-1,-1,-0.8660253882408142],"type":"VEC3"},{"bufferView":10,"componentType":5126,"count":60,"max":[0.015625,1],"min":[0,0.96875],"type":"VEC2"},{"bufferView":11,"componentType":5123,"count":72,"max":[59],"min":[0],"type":"SCALAR"},{"bufferView":12,"componentType":5126,"count":60,"max":[0.027063293382525444,0.0691964253783226,0.03125],"min":[-0.027063293382525444,-0.0558035708963871,-0.03125],"type":"VEC3"},{"bufferView":13,"componentType":5126,"count":60,"max":[1,0.6546536684036255,0.8660253882408142],"min":[-1,-1,-0.8660253882408142],"type":"VEC3"},{"bufferView":14,"componentType":5126,"count":60,"max":[0.015625,1],"min":[0,0.96875],"type":"VEC2"},{"bufferView":15,"componentType":5123,"count":72,"max":[59],"min":[0],"type":"SCALAR"},{"bufferView":16,"componentType":5126,"count":60,"max":[0.025439497083425522,0.07133928686380386,0.029374999925494194],"min":[-0.025439497083425522,-0.04616071283817291,-0.029374999925494194],"type":"VEC3"},{"bufferView":17,"componentType":5126,"count":60,"max":[1,0.6546536684036255,0.8660253882408142],"min":[-1,-1,-0.8660253882408142],"type":"VEC3"},{"bufferView":18,"componentType":5126,"count":60,"max":[0.015625,1],"min":[0,0.96875],"type":"VEC2"},{"bufferView":19,"componentType":5123,"count":72,"max":[59],"min":[0],"type":"SCALAR"},{"bufferView":20,"componentType":5126,"count":120,"max":[0.1875,0,0.25],"min":[-0.1875,-0.5,-0.25],"type":"VEC3"},{"bufferView":21,"componentType":5126,"count":120,"max":[0.953996479511261,0.479335218667984,0.9166450500488281],"min":[-0.953996479511261,-1,-0.9166450500488281],"type":"VEC3"},{"bufferView":22,"componentType":5126,"count":120,"max":[0.5,1],"min":[0,0.44734373688697815],"type":"VEC2"},{"bufferView":23,"componentType":5123,"count":144,"max":[119],"min":[0],"type":"SCALAR"},{"bufferView":24,"componentType":5126,"count":24,"max":[0.0625,0.0625,0.0625],"min":[0,0,0],"type":"VEC3"},{"bufferView":25,"componentType":5126,"count":24,"max":[1,1,1],"min":[-1,-1,-1],"type":"VEC3"},{"bufferView":26,"componentType":5126,"count":24,"max":[0.0625,0.09375],"min":[0.03125,0.0625],"type":"VEC2"},{"bufferView":27,"componentType":5123,"count":36,"max":[23],"min":[0],"type":"SCALAR"},{"bufferView":28,"componentType":5126,"count":24,"max":[0.03125,0.015625,0.03125],"min":[-0.03125,-0.046875,-0.03125],"type":"VEC3"},{"bufferView":29,"componentType":5126,"count":24,"max":[1,1,1],"min":[-1,-1,-1],"type":"VEC3"},{"bufferView":30,"componentType":5126,"count":24,"max":[0.125,1],"min":[0,0.03125],"type":"VEC2"},{"bufferView":31,"componentType":5123,"count":36,"max":[23],"min":[0],"type":"SCALAR"},{"bufferView":32,"componentType":5126,"count":24,"max":[0,0.0625,0.0625],"min":[-0.0625,0,0],"type":"VEC3"},{"bufferView":33,"componentType":5126,"count":24,"max":[1,1,1],"min":[-1,-1,-1],"type":"VEC3"},{"bufferView":34,"componentType":5126,"count":24,"max":[0.125,1],"min":[0,0.03125],"type":"VEC2"},{"bufferView":35,"componentType":5123,"count":36,"max":[23],"min":[0],"type":"SCALAR"},{"bufferView":36,"componentType":5126,"count":24,"max":[0,0.0625,0.0625],"min":[-0.0625,0,0],"type":"VEC3"},{"bufferView":37,"componentType":5126,"count":24,"max":[1,1,1],"min":[-1,-1,-1],"type":"VEC3"},{"bufferView":38,"componentType":5126,"count":24,"max":[0.0625,0.09375],"min":[0.03125,0.0625],"type":"VEC2"},{"bufferView":39,"componentType":5123,"count":36,"max":[23],"min":[0],"type":"SCALAR"},{"bufferView":40,"componentType":5126,"count":24,"max":[0.03125,0.015625,0.03125],"min":[-0.03125,-0.046875,-0.03125],"type":"VEC3"},{"bufferView":41,"componentType":5126,"count":24,"max":[1,1,1],"min":[-1,-1,-1],"type":"VEC3"},{"bufferView":42,"componentType":5126,"count":24,"max":[0.125,1],"min":[0,0.03125],"type":"VEC2"},{"bufferView":43,"componentType":5123,"count":36,"max":[23],"min":[0],"type":"SCALAR"},{"bufferView":44,"componentType":5126,"count":24,"max":[0.0625,0.0625,0.0625],"min":[0,0,0],"type":"VEC3"},{"bufferView":45,"componentType":5126,"count":24,"max":[1,1,1],"min":[-1,-1,-1],"type":"VEC3"},{"bufferView":46,"componentType":5126,"count":24,"max":[0.125,1],"min":[0,0.03125],"type":"VEC2"},{"bufferView":47,"componentType":5123,"count":36,"max":[23],"min":[0],"type":"SCALAR"},{"bufferView":48,"componentType":5126,"count":3,"max":[2],"min":[0],"type":"SCALAR"},{"bufferView":49,"componentType":5126,"count":3,"max":[0,0,0,1],"min":[-0.04361938685178757,0,0,0.9990482330322266],"type":"VEC4"},{"bufferView":50,"componentType":5126,"count":39,"max":[2],"min":[0],"type":"SCALAR"},{"bufferView":51,"componentType":5126,"count":39,"max":[0,0.03125,0],"min":[0,0,0],"type":"VEC3"},{"bufferView":52,"componentType":5126,"count":3,"max":[2],"min":[0],"type":"SCALAR"},{"bufferView":53,"componentType":5126,"count":3,"max":[0.04361938685178757,0,0,0.9990482330322266],"min":[-0.13052618503570557,0,0,0.9914448857307434],"type":"VEC4"},{"bufferView":54,"componentType":5126,"count":39,"max":[2],"min":[0],"type":"SCALAR"},{"bufferView":55,"componentType":5126,"count":39,"max":[0,0.75,0],"min":[0,0.625,0],"type":"VEC3"},{"bufferView":56,"componentType":5126,"count":39,"max":[2],"min":[0],"type":"SCALAR"},{"bufferView":57,"componentType":5126,"count":39,"max":[-0.24895016849040985,0.5718017816543579,0.03125],"min":[-0.24895016849040985,0.4445434808731079,0.03125],"type":"VEC3"}],"materials":[{"pbrMetallicRoughness":{"metallicFactor":0,"roughnessFactor":1,"baseColorTexture":{"index":0}},"alphaMode":"MASK","alphaCutoff":0.05,"doubleSided":true},{"pbrMetallicRoughness":{"metallicFactor":0,"roughnessFactor":1},"alphaMode":"MASK","alphaCutoff":0.05,"doubleSided":true}],"textures":[{"sampler":0,"source":0,"name":"texture.png"}],"samplers":[{"magFilter":9728,"minFilter":9728,"wrapS":33071,"wrapT":33071}],"images":[{"mimeType":"image/png","uri":"data:image/png;base64,"}],"meshes":[{"primitives":[{"mode":4,"attributes":{"POSITION":0,"NORMAL":1,"TEXCOORD_0":2},"indices":3,"material":0}]},{"primitives":[{"mode":4,"attributes":{"POSITION":4,"NORMAL":5,"TEXCOORD_0":6},"indices":7,"material":1}]},{"primitives":[{"mode":4,"attributes":{"POSITION":8,"NORMAL":9,"TEXCOORD_0":10},"indices":11,"material":1}]},{"primitives":[{"mode":4,"attributes":{"POSITION":12,"NORMAL":13,"TEXCOORD_0":14},"indices":15,"material":1}]},{"primitives":[{"mode":4,"attributes":{"POSITION":16,"NORMAL":17,"TEXCOORD_0":18},"indices":19,"material":1}]},{"primitives":[{"mode":4,"attributes":{"POSITION":20,"NORMAL":21,"TEXCOORD_0":22},"indices":23,"material":0}]},{"primitives":[{"mode":4,"attributes":{"POSITION":24,"NORMAL":25,"TEXCOORD_0":26},"indices":27,"material":0}]},{"primitives":[{"mode":4,"attributes":{"POSITION":28,"NORMAL":29,"TEXCOORD_0":30},"indices":31,"material":0}]},{"primitives":[{"mode":4,"attributes":{"POSITION":32,"NORMAL":33,"TEXCOORD_0":34},"indices":35,"material":0}]},{"primitives":[{"mode":4,"attributes":{"POSITION":36,"NORMAL":37,"TEXCOORD_0":38},"indices":39,"material":0}]},{"primitives":[{"mode":4,"attributes":{"POSITION":40,"NORMAL":41,"TEXCOORD_0":42},"indices":43,"material":0}]},{"primitives":[{"mode":4,"attributes":{"POSITION":44,"NORMAL":45,"TEXCOORD_0":46},"indices":47,"material":0}]}],"animations":[{"name":"animation.model.new2","samplers":[{"input":48,"output":49,"interpolation":"LINEAR"},{"input":50,"output":51,"interpolation":"LINEAR"},{"input":52,"output":53,"interpolation":"LINEAR"},{"input":54,"output":55,"interpolation":"LINEAR"},{"input":56,"output":57,"interpolation":"LINEAR"}],"channels":[{"sampler":0,"target":{"node":14,"path":"rotation"}},{"sampler":1,"target":{"node":14,"path":"translation"}},{"sampler":2,"target":{"node":12,"path":"rotation"}},{"sampler":3,"target":{"node":12,"path":"translation"}},{"sampler":4,"target":{"node":24,"path":"translation"}}]}]}